<svg id="visual" viewBox="0 0 2000 1000" width="2000" height="1000" xmlns="http://www.w3.org/2000/svg" xmlns:xlink="http://www.w3.org/1999/xlink" version="1.1"><g fill="#0066ff"><circle r="116" cx="1014" cy="951"></circle><circle r="15" cx="1460" cy="878"></circle><circle r="103" cx="1835" cy="502"></circle><circle r="29" cx="554" cy="758"></circle><circle r="61" cx="327" cy="876"></circle><circle r="63" cx="496" cy="503"></circle><circle r="100" cx="1340" cy="25"></circle><circle r="39" cx="1171" cy="677"></circle><circle r="102" cx="1058" cy="271"></circle><circle r="34" cx="25" cy="408"></circle><circle r="110" cx="1721" cy="802"></circle><circle r="21" cx="1479" cy="440"></circle><circle r="87" cx="822" cy="317"></circle><circle r="59" cx="473" cy="99"></circle><circle r="39" cx="73" cy="647"></circle><circle r="48" cx="830" cy="578"></circle><circle r="37" cx="1856" cy="250"></circle><circle r="60" cx="182" cy="106"></circle><circle r="41" cx="1979" cy="757"></circle><circle r="63" cx="892" cy="78"></circle><circle r="92" cx="1588" cy="83"></circle><circle r="24" cx="290" cy="316"></circle><circle r="32" cx="305" cy="638"></circle><circle r="49" cx="69" cy="937"></circle><circle r="80" cx="795" cy="809"></circle><circle r="58" cx="1224" cy="443"></circle><circle r="43" cx="1917" cy="986"></circle><circle r="33" cx="1973" cy="1"></circle><circle r="19" cx="649" cy="997"></circle></g></svg>