<svg id="visual" viewBox="0 0 900 600" width="900" height="600" xmlns="http://www.w3.org/2000/svg" xmlns:xlink="http://www.w3.org/1999/xlink" version="1.1"><rect x="0" y="0" width="900" height="600" fill="#1a7be9"></rect><path d="M0 394L21.5 385.3C43 376.7 86 359.3 128.8 352.3C171.7 345.3 214.3 348.7 257.2 364.7C300 380.7 343 409.3 385.8 421.7C428.7 434 471.3 430 514.2 429.7C557 429.3 600 432.7 642.8 421C685.7 409.3 728.3 382.7 771.2 373.5C814 364.3 857 372.7 878.5 376.8L900 381L900 601L878.5 601C857 601 814 601 771.2 601C728.3 601 685.7 601 642.8 601C600 601 557 601 514.2 601C471.3 601 428.7 601 385.8 601C343 601 300 601 257.2 601C214.3 601 171.7 601 128.8 601C86 601 43 601 21.5 601L0 601Z" fill="#70a1d8"></path><path d="M0 440L21.5 432.7C43 425.3 86 410.7 128.8 412.8C171.7 415 214.3 434 257.2 443.2C300 452.3 343 451.7 385.8 442.5C428.7 433.3 471.3 415.7 514.2 420.7C557 425.7 600 453.3 642.8 452.3C685.7 451.3 728.3 421.7 771.2 406.3C814 391 857 390 878.5 389.5L900 389L900 601L878.5 601C857 601 814 601 771.2 601C728.3 601 685.7 601 642.8 601C600 601 557 601 514.2 601C471.3 601 428.7 601 385.8 601C343 601 300 601 257.2 601C214.3 601 171.7 601 128.8 601C86 601 43 601 21.5 601L0 601Z" fill="#97b8e2"></path><path d="M0 509L21.5 505.3C43 501.7 86 494.3 128.8 487.5C171.7 480.7 214.3 474.3 257.2 476.3C300 478.3 343 488.7 385.8 483.5C428.7 478.3 471.3 457.7 514.2 449.3C557 441 600 445 642.8 448.2C685.7 451.3 728.3 453.7 771.2 455.8C814 458 857 460 878.5 461L900 462L900 601L878.5 601C857 601 814 601 771.2 601C728.3 601 685.7 601 642.8 601C600 601 557 601 514.2 601C471.3 601 428.7 601 385.8 601C343 601 300 601 257.2 601C214.3 601 171.7 601 128.8 601C86 601 43 601 21.5 601L0 601Z" fill="#bbcfec"></path><path d="M0 508L21.5 509.8C43 511.7 86 515.3 128.8 509.8C171.7 504.3 214.3 489.7 257.2 485.2C300 480.7 343 486.3 385.8 491.7C428.7 497 471.3 502 514.2 509.2C557 516.3 600 525.7 642.8 521.8C685.7 518 728.3 501 771.2 500C814 499 857 514 878.5 521.5L900 529L900 601L878.5 601C857 601 814 601 771.2 601C728.3 601 685.7 601 642.8 601C600 601 557 601 514.2 601C471.3 601 428.7 601 385.8 601C343 601 300 601 257.2 601C214.3 601 171.7 601 128.8 601C86 601 43 601 21.5 601L0 601Z" fill="#dde7f6"></path><path d="M0 556L21.5 550.8C43 545.7 86 535.3 128.8 529.3C171.7 523.3 214.3 521.7 257.2 523C300 524.3 343 528.7 385.8 534.2C428.7 539.7 471.3 546.3 514.2 546.8C557 547.3 600 541.7 642.8 539.8C685.7 538 728.3 540 771.2 543.8C814 547.7 857 553.3 878.5 556.2L900 559L900 601L878.5 601C857 601 814 601 771.2 601C728.3 601 685.7 601 642.8 601C600 601 557 601 514.2 601C471.3 601 428.7 601 385.8 601C343 601 300 601 257.2 601C214.3 601 171.7 601 128.8 601C86 601 43 601 21.5 601L0 601Z" fill="#ffffff"></path></svg>