<svg id="visual" viewBox="0 0 900 600" width="900" height="600" xmlns="http://www.w3.org/2000/svg" xmlns:xlink="http://www.w3.org/1999/xlink" version="1.1"><rect x="0" y="0" width="900" height="600" fill="#1a7be9"></rect><path d="M0 204L21.5 212.7C43 221.3 86 238.7 128.8 245.7C171.7 252.7 214.3 249.3 257.2 233.3C300 217.3 343 188.7 385.8 176.3C428.7 164 471.3 168 514.2 168.3C557 168.7 600 165.3 642.8 177C685.7 188.7 728.3 215.3 771.2 224.5C814 233.7 857 225.3 878.5 221.2L900 217L900 0L878.5 0C857 0 814 0 771.2 0C728.3 0 685.7 0 642.8 0C600 0 557 0 514.2 0C471.3 0 428.7 0 385.8 0C343 0 300 0 257.2 0C214.3 0 171.7 0 128.8 0C86 0 43 0 21.5 0L0 0Z" fill="#70a1d8"></path><path d="M0 158L21.5 165.3C43 172.7 86 187.3 128.8 185.2C171.7 183 214.3 164 257.2 154.8C300 145.7 343 146.3 385.8 155.5C428.7 164.7 471.3 182.3 514.2 177.3C557 172.3 600 144.7 642.8 145.7C685.7 146.7 728.3 176.3 771.2 191.7C814 207 857 208 878.5 208.5L900 209L900 0L878.5 0C857 0 814 0 771.2 0C728.3 0 685.7 0 642.8 0C600 0 557 0 514.2 0C471.3 0 428.7 0 385.8 0C343 0 300 0 257.2 0C214.3 0 171.7 0 128.8 0C86 0 43 0 21.5 0L0 0Z" fill="#97b8e2"></path><path d="M0 89L21.5 92.7C43 96.3 86 103.7 128.8 110.5C171.7 117.3 214.3 123.7 257.2 121.7C300 119.7 343 109.3 385.8 114.5C428.7 119.7 471.3 140.3 514.2 148.7C557 157 600 153 642.8 149.8C685.7 146.7 728.3 144.3 771.2 142.2C814 140 857 138 878.5 137L900 136L900 0L878.5 0C857 0 814 0 771.2 0C728.3 0 685.7 0 642.8 0C600 0 557 0 514.2 0C471.3 0 428.7 0 385.8 0C343 0 300 0 257.2 0C214.3 0 171.7 0 128.8 0C86 0 43 0 21.5 0L0 0Z" fill="#bbcfec"></path><path d="M0 90L21.5 88.2C43 86.3 86 82.7 128.8 88.2C171.7 93.7 214.3 108.3 257.2 112.8C300 117.3 343 111.7 385.8 106.3C428.7 101 471.3 96 514.2 88.8C557 81.7 600 72.3 642.8 76.2C685.7 80 728.3 97 771.2 98C814 99 857 84 878.5 76.5L900 69L900 0L878.5 0C857 0 814 0 771.2 0C728.3 0 685.7 0 642.8 0C600 0 557 0 514.2 0C471.3 0 428.7 0 385.8 0C343 0 300 0 257.2 0C214.3 0 171.7 0 128.8 0C86 0 43 0 21.5 0L0 0Z" fill="#dde7f6"></path><path d="M0 42L21.5 47.2C43 52.3 86 62.7 128.8 68.7C171.7 74.7 214.3 76.3 257.2 75C300 73.7 343 69.3 385.8 63.8C428.7 58.3 471.3 51.7 514.2 51.2C557 50.7 600 56.3 642.8 58.2C685.7 60 728.3 58 771.2 54.2C814 50.3 857 44.7 878.5 41.8L900 39L900 0L878.5 0C857 0 814 0 771.2 0C728.3 0 685.7 0 642.8 0C600 0 557 0 514.2 0C471.3 0 428.7 0 385.8 0C343 0 300 0 257.2 0C214.3 0 171.7 0 128.8 0C86 0 43 0 21.5 0L0 0Z" fill="#ffffff"></path></svg>