<svg id="visual" viewBox="0 0 900 600" width="900" height="600" xmlns="http://www.w3.org/2000/svg" xmlns:xlink="http://www.w3.org/1999/xlink" version="1.1"><rect x="0" y="0" width="900" height="600" fill="#74f9d8"></rect><path d="M0 351L21.5 353.5C43 356 86 361 128.8 362.7C171.7 364.3 214.3 362.7 257.2 368.7C300 374.7 343 388.3 385.8 387.3C428.7 386.3 471.3 370.7 514.2 362.3C557 354 600 353 642.8 356.3C685.7 359.7 728.3 367.3 771.2 372.2C814 377 857 379 878.5 380L900 381L900 601L878.5 601C857 601 814 601 771.2 601C728.3 601 685.7 601 642.8 601C600 601 557 601 514.2 601C471.3 601 428.7 601 385.8 601C343 601 300 601 257.2 601C214.3 601 171.7 601 128.8 601C86 601 43 601 21.5 601L0 601Z" fill="#3a7cc7"></path><path d="M0 477L21.5 468.3C43 459.7 86 442.3 128.8 433.3C171.7 424.3 214.3 423.7 257.2 428.3C300 433 343 443 385.8 445.7C428.7 448.3 471.3 443.7 514.2 444.3C557 445 600 451 642.8 447.3C685.7 443.7 728.3 430.3 771.2 419.8C814 409.3 857 401.7 878.5 397.8L900 394L900 601L878.5 601C857 601 814 601 771.2 601C728.3 601 685.7 601 642.8 601C600 601 557 601 514.2 601C471.3 601 428.7 601 385.8 601C343 601 300 601 257.2 601C214.3 601 171.7 601 128.8 601C86 601 43 601 21.5 601L0 601Z" fill="#779bd5"></path><path d="M0 505L21.5 502.2C43 499.3 86 493.7 128.8 489.5C171.7 485.3 214.3 482.7 257.2 474.5C300 466.3 343 452.7 385.8 451.7C428.7 450.7 471.3 462.3 514.2 472.8C557 483.3 600 492.7 642.8 494.7C685.7 496.7 728.3 491.3 771.2 488C814 484.7 857 483.3 878.5 482.7L900 482L900 601L878.5 601C857 601 814 601 771.2 601C728.3 601 685.7 601 642.8 601C600 601 557 601 514.2 601C471.3 601 428.7 601 385.8 601C343 601 300 601 257.2 601C214.3 601 171.7 601 128.8 601C86 601 43 601 21.5 601L0 601Z" fill="#a7bbe3"></path><path d="M0 486L21.5 487.7C43 489.3 86 492.7 128.8 499.3C171.7 506 214.3 516 257.2 520.2C300 524.3 343 522.7 385.8 520.2C428.7 517.7 471.3 514.3 514.2 507.8C557 501.3 600 491.7 642.8 488.3C685.7 485 728.3 488 771.2 492.8C814 497.7 857 504.3 878.5 507.7L900 511L900 601L878.5 601C857 601 814 601 771.2 601C728.3 601 685.7 601 642.8 601C600 601 557 601 514.2 601C471.3 601 428.7 601 385.8 601C343 601 300 601 257.2 601C214.3 601 171.7 601 128.8 601C86 601 43 601 21.5 601L0 601Z" fill="#d3dcf1"></path><path d="M0 573L21.5 567.2C43 561.3 86 549.7 128.8 549C171.7 548.3 214.3 558.7 257.2 558.3C300 558 343 547 385.8 546.7C428.7 546.3 471.3 556.7 514.2 559.3C557 562 600 557 642.8 551.2C685.7 545.3 728.3 538.7 771.2 537.8C814 537 857 542 878.5 544.5L900 547L900 601L878.5 601C857 601 814 601 771.2 601C728.3 601 685.7 601 642.8 601C600 601 557 601 514.2 601C471.3 601 428.7 601 385.8 601C343 601 300 601 257.2 601C214.3 601 171.7 601 128.8 601C86 601 43 601 21.5 601L0 601Z" fill="#ffffff"></path></svg>